<svg xmlns="http://www.w3.org/2000/svg" xmlns:xlink="http://www.w3.org/1999/xlink" version="1.1" x="0px" y="0px" viewBox="0 0 100 125" style="enable-background:new 0 0 100 100;" xml:space="preserve"><ellipse transform="matrix(0.3827 -0.9239 0.9239 0.3827 19.3481 66.0822)" cx="59.12" cy="18.56" rx="8.56" ry="8.56"/><path d="M76.92,86.9l-0.17-0.3V49.13c0-0.14-0.03-0.28-0.09-0.4c-0.06-0.15-0.16-0.28-0.29-0.38c-0.82-0.64-1.76-1.04-2.72-1.2  l0.18-0.67c0.51-1.92-0.62-3.89-2.54-4.4l-12.03-3.22l-4.68-8.1l-1.31-2.27c-0.57-0.59-1.18-1.14-1.81-1.65  c-2.96-2.37-6.53-3.75-10.37-3.75c-1.11,0-2.2,0.12-3.26,0.34C29.13,25.24,22.54,34.21,22.54,45c0,0.57,0.02,1.13,0.05,1.68  c0.15,2.27,0.59,4.45,1.27,6.47c-0.01,0.09-0.01,0.17-0.01,0.26v32.99c0,1.98,1.61,3.59,3.59,3.59h0.72c1.98,0,3.59-1.61,3.59-3.59  V55.87h0.07l6.34,10.97v19.57c0,1.98,1.61,3.59,3.59,3.59h0.72c1.98,0,3.59-1.61,3.59-3.59V65.48c0-0.96-0.38-1.84-1-2.48  l-5.76-9.97c0.33-7.44,3.79-13.89,8.86-17.55l5.08,8.81c0.46,0.8,1.19,1.36,2.01,1.63c0.19,0.09,0.4,0.17,0.61,0.23l11.93,3.2  c-0.03,0.03-0.06,0.07-0.08,0.1c-0.33,0.42-0.25,1.02,0.17,1.35c0.18,0.14,0.38,0.2,0.59,0.2c0.29,0,0.57-0.13,0.76-0.37  c0.23-0.3,0.5-0.56,0.79-0.78c0.91,0.03,1.78-0.28,2.45-0.85c0.83-0.02,1.63,0.2,2.33,0.64v36.98l-0.17,0.3l-0.44,0.76  c-0.31,0.54,0.08,1.21,0.7,1.21h1.75c0.62,0,1.01-0.67,0.7-1.21L76.92,86.9z"/><text x="0" y="115" fill="#000000" font-size="5px" font-weight="bold" font-family="'Helvetica Neue', Helvetica, Arial-Unicode, Arial, Sans-serif">Created by ainul muttaqin</text><text x="0" y="120" fill="#000000" font-size="5px" font-weight="bold" font-family="'Helvetica Neue', Helvetica, Arial-Unicode, Arial, Sans-serif">from the Noun Project</text></svg>